<svg xmlns="http://www.w3.org/2000/svg" width="20" height="40" viewBox="0 0 20 40" fill="none">
    <path d="M2.57129 36.1874C1.72339 36.6625 1.0829 37.3368 0.741308 38.3138C0.583931 38.7608 0.686409 39.0302 1.05484 39.2703C2.26873 40.0608 3.58022 40.14 4.9283 39.8348C7.79283 39.1873 10.1413 37.5961 12.186 35.4723L12.1592 35.213C11.3259 35.0853 10.4951 34.9103 9.65818 34.8605C7.20113 34.715 4.79288 34.941 2.57129 36.1874ZM8.65413 23.626C6.79488 24.6898 5.51389 26.2287 4.6965 28.1967C4.31953 29.1022 4.10603 30.0536 4.31831 31.0536C4.35846 31.2828 4.41183 31.5092 4.47812 31.7317C4.96612 33.1748 5.85915 33.4813 7.07791 32.6001C8.1576 31.8211 8.58216 30.6193 8.84567 29.3576C9.1975 27.6483 9.21245 25.8818 8.88959 24.1662C8.87002 24.0627 8.84101 23.9613 8.80297 23.8636C8.75893 23.7807 8.70919 23.7013 8.65413 23.626ZM19.878 22.4767C19.1204 22.7423 18.3433 22.9607 17.6088 23.2851C15.1689 24.3616 12.9534 25.7869 11.2478 27.9566C10.367 29.0779 9.83874 30.3295 10.04 31.8326C10.0913 32.2157 10.2169 32.4315 10.6183 32.4992C11.7797 32.6946 12.8362 32.3843 13.8257 31.7981C15.7971 30.6321 17.1306 28.8212 18.2688 26.8353C19.024 25.5187 19.6511 24.1445 20 22.6529L19.878 22.4767ZM9.07625 12.062L8.81151 12.1055C8.63217 13.0084 8.37964 13.9023 8.28936 14.8154C8.08806 16.8281 7.999 18.8651 8.84811 20.7552C9.17498 21.4304 9.63191 22.0274 10.1901 22.5086C10.7928 23.0488 11.0917 22.9594 11.4662 22.2034C11.7578 21.6146 12.0054 20.9493 12.0628 20.2967C12.2738 17.8575 11.3564 15.7324 10.1925 13.7057C9.86314 13.131 9.45078 12.6086 9.07625 12.062ZM18.874 11.1809C18.3347 11.6521 17.7601 12.085 17.2624 12.5984C15.5092 14.4106 14.0172 16.4143 13.4279 18.9838C13.212 19.9276 13.2535 20.879 13.711 21.773C13.9025 22.1485 14.1245 22.2698 14.543 22.1459C15.7971 21.7755 16.6536 20.9059 17.3173 19.7986C18.3408 18.0912 18.8117 16.1858 19.0082 14.205C19.1033 13.2472 19.1021 12.2753 19.146 11.3073L18.874 11.1809ZM13.8269 3.95896C13.4389 4.72521 13.0583 5.39185 12.7557 6.09424C12.1353 7.50536 11.7685 9.02403 11.6736 10.5742C11.6028 11.822 11.7456 13.0352 12.6398 14.0122C13.0058 14.4106 13.3096 14.4361 13.7134 14.0594C14.7467 13.099 15.1201 11.8309 15.1957 10.4721C15.3107 8.34229 14.9153 6.21618 14.0453 4.28717C13.9792 4.17301 13.9063 4.06338 13.8269 3.95896ZM4.91366 0C4.87828 2.11357 5.42483 4.02537 6.23368 5.87458C6.7107 6.96393 7.28775 8.0022 8.24788 8.69694C8.70049 9.02387 9.25193 9.21926 9.78018 9.41083C10.1828 9.55641 10.4658 9.37762 10.589 8.91021C10.8786 7.83613 10.7796 6.68797 10.3109 5.68557C9.19581 3.22847 7.39999 1.43033 5.18694 0.0664083C5.09873 0.0328187 5.00698 0.0105206 4.91366 0Z" fill="#FEB323"/>
</svg>
