<svg fill="none" xmlns="http://www.w3.org/2000/svg" viewBox="0 0 160 160">
  <mask id="a" style="mask-type:luminance" maskUnits="userSpaceOnUse" x="0" y="51" width="160" height="58">
    <path d="M0 51.416h160v57.168H0V51.416Z" fill="#fff"/>
  </mask>
  <g mask="url(#a)">
    <path d="m147.866 88.457-2.838-2.24v-3.704a.845.845 0 0 0-.245-.595.84.84 0 0 0-1.434.595v2.38l-18.895-14.895a.838.838 0 0 0-.538-.18 1.338 1.338 0 0 0-.451-.078h-19.593a1.346 1.346 0 0 0-1.345 1.343v.28a1.344 1.344 0 0 0 1.345 1.344h19.593a1.337 1.337 0 0 0 1.057-.515l18.827 14.842v19.003h-15.918v2.267h16.159c.079.08.172.144.275.188a.852.852 0 0 0 .654 0 .852.852 0 0 0 .275-.188h1.443v-2.267h-1.205v-17.68l1.799 1.418a.841.841 0 0 0 .958.11.839.839 0 0 0 .411-.524.81.81 0 0 0 .018-.339.831.831 0 0 0-.352-.565Z" fill="#FEBA91"/>
    <path d="M134.388 86.478h-31.943v21.613h31.943V86.478Z" fill="#fff" stroke="#2E186A" stroke-width=".56" stroke-linecap="round" stroke-linejoin="round"/>
    <path d="M120.367 86.272v21.942" stroke="#2E186A" stroke-width=".56" stroke-linejoin="round"/>
    <path d="M116.067 88.872h14.455m-5.71 7.764h9.287m-19.477 6.303h18.103m-15.574-8.244h-9.359m-5.347 5.277h11.093" stroke="#2E186A" stroke-width=".56" stroke-linecap="round" stroke-linejoin="round"/>
    <path d="M134.481 96.6c2.385.902-.071 2.41-.071 2.41s-.615-1.71-3.759-2.403l3.83-.007Z" fill="#fff" stroke="#2E186A" stroke-width=".56" stroke-linecap="round" stroke-linejoin="round"/>
    <path d="M88.616 51.416H22.794A1.388 1.388 0 0 0 21.41 52.8v39.109a1.387 1.387 0 0 0 1.384 1.384h25.849l-3.794 14.483 24.007.762-3.908-15.246h23.668A1.387 1.387 0 0 0 90 91.909v-39.11a1.386 1.386 0 0 0-1.384-1.383Z" fill="#FE7624"/>
    <path d="M56.403 102.573a2.875 2.875 0 0 0 2.877-2.877 2.877 2.877 0 1 0-2.877 2.877Z" fill="#fff"/>
    <path d="m62.764 93.341 3.483 14.835" stroke="#2E186A" stroke-width=".712" stroke-linecap="round" stroke-linejoin="round"/>
    <path d="M82.818 54.044h-56.82c-.721 0-1.306.585-1.306 1.306v33.084c0 .721.585 1.306 1.306 1.306h56.82c.721 0 1.306-.585 1.306-1.305V55.35c0-.721-.585-1.306-1.306-1.306Z" fill="#fff"/>
    <path d="M87.123 51.746v41.176" stroke="#2E186A" stroke-width=".56" stroke-linecap="round" stroke-linejoin="round"/>
    <path d="M59.86 59.755v26.318m22.258-22.559c-.225.076-22.258-.3-22.258 0m22.258 9.436c-.225.075-22.258-.301-22.258 0m22.258 7.964c-.225.076-22.258-.3-22.258 0m1.975-15.087h9.249m-9.249 1.936h14.72m-14.72 1.542h9.493m-9.493 1.541h3.364m-3.364 4.099h14.72m-14.72 1.541h9.493m-9.493 1.542h3.364m-3.364 4.422h14.72m-14.72 1.542h9.493M28.9 63.525h21.599M28.9 65.263h21.599M28.9 83.742h21.599M31.55 67.763h14.888M31.55 69.55h12.717m-9.925 2.368 16.468.141m-16.468 1.536 16.468.14m-16.468 5.09 16.468.141m-16.468 1.316 16.468.14m-19.513-4.847h9.587M31.297 77.2h9.587m-9.587 5.188h5.517" stroke="#5D21D1" stroke-width=".56" stroke-linecap="round" stroke-linejoin="round"/>
    <path d="M82.119 59.755H26.475v26.319h55.644V59.755Z" stroke="#5D21D1" stroke-width=".56" stroke-linecap="round" stroke-linejoin="round"/>
    <path d="M28.448 57.931h2.849m9.586 0h2.303m2.613 0h1.804" stroke="#FE7624" stroke-width=".56" stroke-linecap="round" stroke-linejoin="round"/>
    <path d="M78.608 57.931h1.805m-4.891 0h1.805" stroke="#5D21D1" stroke-width=".56" stroke-linecap="round" stroke-linejoin="round"/>
    <path d="M33.97 57.931h4.122" stroke="#FE7624" stroke-width=".56" stroke-linecap="round" stroke-linejoin="round"/>
    <path d="M82.119 56.228H26.475v3.527h55.644v-3.527Z" stroke="#5D21D1" stroke-width=".56" stroke-linecap="round" stroke-linejoin="round"/>
    <path d="M25.697 93.278c-1.773-.53-4.543-1.96-7.278-5.757-2.734-3.797-.746-6.531 1.96-4.418 2.705 2.114 5.318 10.175 5.318 10.175Z" fill="#FCFCFC" stroke="#2E186A" stroke-width=".56" stroke-linecap="round" stroke-linejoin="round"/>
    <path d="M25.78 93.122c-1.017-2.348-2.904-6.683-3.197-10.804-.402-5.668 3.787-6.99 5.038-3.012 1.872 5.97-1.842 13.816-1.842 13.816h.001Z" fill="#FCFCFC" stroke="#2E186A" stroke-width=".56" stroke-linecap="round" stroke-linejoin="round"/>
    <path d="M33.185 87.679c2.738-3.797.746-6.531-1.96-4.419-2.705 2.112-3.952 5.913-5.318 10.018-.003 0 4.54-1.802 7.278-5.599Z" fill="#FCFCFC" stroke="#2E186A" stroke-width=".56" stroke-linecap="round" stroke-linejoin="round"/>
    <path d="M25.904 94.521c-.093-.124.342-2.052-3.3-4.356-3.64-2.303-4.478-1.559-4.944-.717-.467.841 1.648 2.833 3.918 3.985 2.27 1.15 4.326 1.088 4.326 1.088Z" fill="#FCFCFC" stroke="#2E186A" stroke-width=".56" stroke-linecap="round" stroke-linejoin="round"/>
    <path d="M25.904 94.521c.094-.124-.342-2.052 3.3-4.356 3.64-2.303 4.477-1.559 4.944-.717.466.841-1.647 2.834-3.918 3.983-2.27 1.148-4.326 1.09-4.326 1.09Z" fill="#FCFCFC" stroke="#2E186A" stroke-width=".56" stroke-linecap="round" stroke-linejoin="round"/>
    <path d="m22.534 108.256-4.232-4.801 3.743-8.679h7.848l3.612 8.828-4.1 4.652h-6.871Z" fill="#FEBA91"/>
    <path d="M56.292 105.55H25.279a.979.979 0 0 0-.982.982v.592c0 .542.44.982.982.982h31.013c.542 0 .982-.44.982-.982v-.592a.981.981 0 0 0-.982-.982Zm-40.974 0H8.79a.979.979 0 0 0-.982.982v.592c0 .542.44.982.982.982h6.528c.542 0 .982-.44.982-.982v-.592a.981.981 0 0 0-.982-.982Z" fill="#2E186A"/>
    <path d="m66.652 82.212 36.278.3a1.029 1.029 0 0 1 .995.788l5.021 21.256h13.09s.726 3.748-3.505 3.748h-46.11a1.028 1.028 0 0 1-.995-.788l-5.769-24.047a1.027 1.027 0 0 1 .995-1.257Z" fill="#5D21D1"/>
    <path d="m106.663 102.519-3.934-16.56a1.268 1.268 0 0 0-1.233-.976L70.09 84.61a1.268 1.268 0 0 0-1.236 1.564l3.952 16.964a1.264 1.264 0 0 0 1.234.975l31.391-.033c.288-.001.568-.1.793-.28.224-.181.381-.433.444-.714a1.277 1.277 0 0 0-.005-.567Z" fill="#fff"/>
    <path d="m73.458 87.484-.816 1.277 1.315.881m1.262-.182 1.08-1.762m1.21-.097 1.239.965-.767 1.078m1.282 11.585 2.875.001m1.995.001 5.865.003m1.941.001 11.167.007m-27.98-1.728h1.76m1.98.002 2.877.001m1.977.001 19.596.01M74.73 97.802l3.98.002m1.893 0 5.293.003m5.368.003 6.575.004m-10.055-.006 1.864.001m-15.313-1.72 5.48.002m1.668.001 13.934.008m1.671 0 5.438.004m-25.338-1.727 2.107.001m1.363.002 12.967.006m-19.685-.01h1.883m-2.195-1.346 9.976.006m1.529 0 16.933.01m-28.81-1.631 5.478.003m1.848.001 4.066.003m1.725.001h2.319m1.724.002 4.995.002m1.724.001h1.343" stroke="#FE7624" stroke-width=".56" stroke-linecap="round" stroke-linejoin="round"/>
    <path d="M91.827 83.81s1.633 7.278 3.12 8.424h11.75a3.515 3.515 0 0 1-2.389-2.44l-1.679-5.97-10.802-.014Z" fill="#FEBA91"/>
    <path d="M94.316 86.404h7.091m-6.773 1.33h7.091m-6.726 1.367h4.706M.28 108.304h159.439" stroke="#2E186A" stroke-width=".56" stroke-linecap="round" stroke-linejoin="round"/>
  </g>
</svg>
